<svg id="Layer_1" data-name="Layer 1" xmlns="http://www.w3.org/2000/svg" viewBox="0 0 896.39 326.02"><defs><style>.cls-1{fill:#fff;}</style></defs><title>logo2</title><path class="cls-1" d="M70.31,12.82q2.81,1.47,6.41,6l186.75,243q-.67-5.85-.9-11.36t-.23-10.69V11.36H300.6V333.79h-22a18.72,18.72,0,0,1-8.66-1.8,21.82,21.82,0,0,1-6.86-6.08L76.5,83.14q.45,5.63.67,11t.23,9.9V333.79H39.15V11.36h22.5Q67.5,11.36,70.31,12.82Z" transform="translate(-39.15 -11.36)"/><path class="cls-1" d="M540.45,333.79H522.67a21.17,21.17,0,0,1-9.45-1.8q-3.6-1.8-4.73-7.65L504,303.19q-9,8.1-17.55,14.51a100.55,100.55,0,0,1-18,10.8,93.16,93.16,0,0,1-20.14,6.64,115.66,115.66,0,0,1-23.74,2.25,80.91,80.91,0,0,1-24.86-3.72,56.59,56.59,0,0,1-20.14-11.18A53.2,53.2,0,0,1,366,303.63q-5.06-11.4-5.06-27a50.45,50.45,0,0,1,7.42-26.08q7.43-12.53,24-22.24t43.31-15.92q26.77-6.21,65.47-6.21V188.32q0-26.71-11.36-40.41t-33.64-13.7q-14.63,0-24.64,3.71a93.26,93.26,0,0,0-17.33,8.33q-7.31,4.61-12.6,8.32A18.18,18.18,0,0,1,391,158.29a12,12,0,0,1-7.09-2.14,16.23,16.23,0,0,1-4.84-5.29L371.92,138q18.9-18.22,40.73-27.23t48.38-9q19.12,0,34,6.3a69.7,69.7,0,0,1,25,17.55,74.39,74.39,0,0,1,15.3,27.22,113.46,113.46,0,0,1,5.17,35.1Zm-104-24.53a81.69,81.69,0,0,0,19.35-2.14A76.26,76.26,0,0,0,472.39,301a87.45,87.45,0,0,0,14.85-9.56,128.13,128.13,0,0,0,13.84-12.83v-47q-27.68,0-47,3.51t-31.5,9.17Q410.4,250,404.89,257.66a28.83,28.83,0,0,0-5.51,17.2,38.12,38.12,0,0,0,2.92,15.62,29.54,29.54,0,0,0,7.88,10.75,31,31,0,0,0,11.7,6.11A53.14,53.14,0,0,0,436.5,309.26Z" transform="translate(-39.15 -11.36)"/><path class="cls-1" d="M756.67,146.36a17.91,17.91,0,0,1-3.6,3.83,8.52,8.52,0,0,1-5.17,1.35,12.83,12.83,0,0,1-7.31-2.81,106.82,106.82,0,0,0-10-6.19,84,84,0,0,0-14.74-6.19q-8.66-2.81-21.26-2.81-16.65,0-29.47,6a57.16,57.16,0,0,0-21.49,17.21,77.9,77.9,0,0,0-13,27.23,135.07,135.07,0,0,0-4.39,35.77q0,20.7,4.72,36.79t13.28,27A56.58,56.58,0,0,0,665,300.15a64.25,64.25,0,0,0,27.56,5.74q14.62,0,24.08-3.49a73.22,73.22,0,0,0,15.75-7.76,115,115,0,0,0,10.35-7.76q4.05-3.49,8.1-3.49,5.17,0,7.65,3.83l11.25,14.63a86.59,86.59,0,0,1-37.12,26.66,131.64,131.64,0,0,1-47,8.44,99.59,99.59,0,0,1-39.71-7.87A90.48,90.48,0,0,1,614,306.22q-13.5-15-21.26-36.79T585,219.71a150.05,150.05,0,0,1,7.09-47,106.55,106.55,0,0,1,20.7-37.24A93.81,93.81,0,0,1,646.42,111q20-8.78,45.9-8.77,23.85,0,42.3,7.76A101.29,101.29,0,0,1,767.24,132Z" transform="translate(-39.15 -11.36)"/><path class="cls-1" d="M880.42,337.38q-27,0-41.51-15.07t-14.51-43.43V139.38H796.94a9,9,0,0,1-6.08-2.14q-2.48-2.14-2.47-6.64v-16l37.35-4.73L835,39.49A8.51,8.51,0,0,1,837.89,34a9.29,9.29,0,0,1,6.3-2.14h20.25v78.53h65.25v29H864.44v136.8q0,14.4,7,21.38t18,7a31.79,31.79,0,0,0,10.91-1.69,46.88,46.88,0,0,0,8-3.71q3.38-2,5.74-3.71a7.5,7.5,0,0,1,4.16-1.69q3.15,0,5.63,3.83l11.7,19.13a74.6,74.6,0,0,1-25,15.19A84.84,84.84,0,0,1,880.42,337.38Z" transform="translate(-39.15 -11.36)"/></svg>