<svg id="Layer_1" data-name="Layer 1" xmlns="http://www.w3.org/2000/svg" viewBox="0 0 896.39 397.79"><defs><style>.cls-1{fill:#fff;}</style></defs><title>logo</title><path class="cls-1" d="M70.31,12.82q2.81,1.47,6.41,6l186.75,243q-.67-5.85-.9-11.36t-.23-10.69V11.36H300.6V333.79h-22a18.72,18.72,0,0,1-8.66-1.8,21.82,21.82,0,0,1-6.86-6.08L76.5,83.14q.45,5.63.67,11t.23,9.9V333.79H39.15V11.36h22.5Q67.5,11.36,70.31,12.82Z" transform="translate(-39.15 -11.36)"/><path class="cls-1" d="M540.45,333.79H522.67a21.17,21.17,0,0,1-9.45-1.8q-3.6-1.8-4.73-7.65L504,303.19q-9,8.1-17.55,14.51a100.55,100.55,0,0,1-18,10.8,93.16,93.16,0,0,1-20.14,6.64,115.66,115.66,0,0,1-23.74,2.25,80.91,80.91,0,0,1-24.86-3.72,56.59,56.59,0,0,1-20.14-11.18A53.2,53.2,0,0,1,366,303.63q-5.06-11.4-5.06-27a50.45,50.45,0,0,1,7.42-26.08q7.43-12.53,24-22.24t43.31-15.92q26.77-6.21,65.47-6.21V188.32q0-26.71-11.36-40.41t-33.64-13.7q-14.63,0-24.64,3.71a93.26,93.26,0,0,0-17.33,8.33q-7.31,4.61-12.6,8.32A18.18,18.18,0,0,1,391,158.29a12,12,0,0,1-7.09-2.14,16.23,16.23,0,0,1-4.84-5.29L371.92,138q18.9-18.22,40.73-27.23t48.38-9q19.12,0,34,6.3a69.7,69.7,0,0,1,25,17.55,74.39,74.39,0,0,1,15.3,27.22,113.46,113.46,0,0,1,5.17,35.1Zm-104-24.53a81.69,81.69,0,0,0,19.35-2.14A76.26,76.26,0,0,0,472.39,301a87.45,87.45,0,0,0,14.85-9.56,128.13,128.13,0,0,0,13.84-12.83v-47q-27.68,0-47,3.51t-31.5,9.17Q410.4,250,404.89,257.66a28.83,28.83,0,0,0-5.51,17.2,38.12,38.12,0,0,0,2.92,15.62,29.54,29.54,0,0,0,7.88,10.75,31,31,0,0,0,11.7,6.11A53.14,53.14,0,0,0,436.5,309.26Z" transform="translate(-39.15 -11.36)"/><path class="cls-1" d="M756.67,146.36a17.91,17.91,0,0,1-3.6,3.83,8.52,8.52,0,0,1-5.17,1.35,12.83,12.83,0,0,1-7.31-2.81,106.82,106.82,0,0,0-10-6.19,84,84,0,0,0-14.74-6.19q-8.66-2.81-21.26-2.81-16.65,0-29.47,6a57.16,57.16,0,0,0-21.49,17.21,77.9,77.9,0,0,0-13,27.23,135.07,135.07,0,0,0-4.39,35.77q0,20.7,4.72,36.79t13.28,27A56.58,56.58,0,0,0,665,300.15a64.25,64.25,0,0,0,27.56,5.74q14.62,0,24.08-3.49a73.22,73.22,0,0,0,15.75-7.76,115,115,0,0,0,10.35-7.76q4.05-3.49,8.1-3.49,5.17,0,7.65,3.83l11.25,14.63a86.59,86.59,0,0,1-37.12,26.66,131.64,131.64,0,0,1-47,8.44,99.59,99.59,0,0,1-39.71-7.87A90.48,90.48,0,0,1,614,306.22q-13.5-15-21.26-36.79T585,219.71a150.05,150.05,0,0,1,7.09-47,106.55,106.55,0,0,1,20.7-37.24A93.81,93.81,0,0,1,646.42,111q20-8.78,45.9-8.77,23.85,0,42.3,7.76A101.29,101.29,0,0,1,767.24,132Z" transform="translate(-39.15 -11.36)"/><path class="cls-1" d="M880.42,337.38q-27,0-41.51-15.07t-14.51-43.43V139.38H796.94a9,9,0,0,1-6.08-2.14q-2.48-2.14-2.47-6.64v-16l37.35-4.73L835,39.49A8.51,8.51,0,0,1,837.89,34a9.29,9.29,0,0,1,6.3-2.14h20.25v78.53h65.25v29H864.44v136.8q0,14.4,7,21.38t18,7a31.79,31.79,0,0,0,10.91-1.69,46.88,46.88,0,0,0,8-3.71q3.38-2,5.74-3.71a7.5,7.5,0,0,1,4.16-1.69q3.15,0,5.63,3.83l11.7,19.13a74.6,74.6,0,0,1-25,15.19A84.84,84.84,0,0,1,880.42,337.38Z" transform="translate(-39.15 -11.36)"/><polygon class="cls-1" points="285.67 377.98 251.35 397.79 251.35 358.17 285.67 377.98"/><path class="cls-1" d="M368.45,399.32h-2.51a1.07,1.07,0,0,1-.7-.22,1.33,1.33,0,0,1-.4-.55l-2.24-5.79H351.82l-2.24,5.79a1.31,1.31,0,0,1-.4.54,1.07,1.07,0,0,1-.7.23H346l9.6-24h3.3Zm-15.72-8.91h9l-3.77-9.76a18.29,18.29,0,0,1-.72-2.26q-.18.69-.36,1.26t-.34,1Z" transform="translate(-39.15 -11.36)"/><path class="cls-1" d="M394.29,375.32v2.73h-7.75v21.27h-3.25V378.05H375.5v-2.73Z" transform="translate(-39.15 -11.36)"/><path class="cls-1" d="M400.44,382.09a7.57,7.57,0,0,1,2.81.51,6.33,6.33,0,0,1,2.23,1.47,6.72,6.72,0,0,1,1.46,2.38,9.19,9.19,0,0,1,.53,3.22,1.94,1.94,0,0,1-.15.94.63.63,0,0,1-.57.23H395.46a9.38,9.38,0,0,0,.44,2.8,5.71,5.71,0,0,0,1.11,2,4.41,4.41,0,0,0,1.67,1.19,5.74,5.74,0,0,0,2.18.39,6.39,6.39,0,0,0,1.93-.26,9.23,9.23,0,0,0,1.4-.56,10.69,10.69,0,0,0,1-.56,1.3,1.3,0,0,1,.68-.26.66.66,0,0,1,.57.28l.84,1.09a5.67,5.67,0,0,1-1.32,1.16,8.24,8.24,0,0,1-1.65.81,10.38,10.38,0,0,1-1.82.48,11.06,11.06,0,0,1-1.86.16,8.62,8.62,0,0,1-3.24-.59,7.1,7.1,0,0,1-2.56-1.74,8,8,0,0,1-1.68-2.84,11.52,11.52,0,0,1-.6-3.88,9.87,9.87,0,0,1,.54-3.32,7.79,7.79,0,0,1,1.57-2.67,7.2,7.2,0,0,1,2.5-1.78A8.19,8.19,0,0,1,400.44,382.09Zm.07,2.19a4.57,4.57,0,0,0-3.4,1.25,5.87,5.87,0,0,0-1.54,3.46h9.23a6,6,0,0,0-.29-1.9,4.24,4.24,0,0,0-.84-1.49,3.76,3.76,0,0,0-1.35-1A4.55,4.55,0,0,0,400.5,384.28Z" transform="translate(-39.15 -11.36)"/><path class="cls-1" d="M423.73,399.32h-1.32a1.58,1.58,0,0,1-.7-.13.74.74,0,0,1-.35-.57L421,397q-.67.6-1.31,1.08a7.49,7.49,0,0,1-1.34.8,6.92,6.92,0,0,1-1.5.49,8.62,8.62,0,0,1-1.77.17,6,6,0,0,1-1.85-.28,4.23,4.23,0,0,1-1.5-.83,4,4,0,0,1-1-1.4,4.92,4.92,0,0,1-.38-2,3.76,3.76,0,0,1,.55-1.94,4.86,4.86,0,0,1,1.78-1.65,11.6,11.6,0,0,1,3.22-1.19,22,22,0,0,1,4.87-.46V388.5a4.62,4.62,0,0,0-.85-3,3.07,3.07,0,0,0-2.5-1,5.3,5.3,0,0,0-1.83.28,6.9,6.9,0,0,0-1.29.62q-.54.34-.94.62a1.36,1.36,0,0,1-.78.28.9.9,0,0,1-.53-.16,1.23,1.23,0,0,1-.36-.39l-.54-1a9.69,9.69,0,0,1,3-2,9.36,9.36,0,0,1,3.6-.67,6.43,6.43,0,0,1,2.53.47,5.19,5.19,0,0,1,1.86,1.31,5.54,5.54,0,0,1,1.14,2,8.44,8.44,0,0,1,.38,2.61ZM416,397.5a6.07,6.07,0,0,0,1.44-.16,5.69,5.69,0,0,0,1.23-.45,6.48,6.48,0,0,0,1.11-.71,9.49,9.49,0,0,0,1-1v-3.5a20,20,0,0,0-3.5.26,9.81,9.81,0,0,0-2.34.68,3.26,3.26,0,0,0-1.31,1,2.15,2.15,0,0,0-.41,1.28,2.83,2.83,0,0,0,.22,1.16,2.19,2.19,0,0,0,.59.8,2.3,2.3,0,0,0,.87.45A4,4,0,0,0,416,397.5Z" transform="translate(-39.15 -11.36)"/><path class="cls-1" d="M428.25,399.32v-17H430a.76.76,0,0,1,.8.62l.22,1.74a8.69,8.69,0,0,1,2.1-1.89,4.94,4.94,0,0,1,2.7-.74,4,4,0,0,1,2.79,1,5.37,5.37,0,0,1,1.53,2.58,5.29,5.29,0,0,1,.93-1.59,5.41,5.41,0,0,1,1.3-1.11,5.48,5.48,0,0,1,1.53-.64,6.8,6.8,0,0,1,1.65-.2,6.29,6.29,0,0,1,2.39.43,4.73,4.73,0,0,1,1.77,1.25,5.56,5.56,0,0,1,1.11,2,9,9,0,0,1,.38,2.74v10.8h-3v-10.8a4.58,4.58,0,0,0-.87-3,3.13,3.13,0,0,0-2.53-1,3.77,3.77,0,0,0-1.4.26,3.36,3.36,0,0,0-1.16.76,3.57,3.57,0,0,0-.8,1.26,4.91,4.91,0,0,0-.29,1.77v10.8h-3v-10.8a4.75,4.75,0,0,0-.82-3,2.91,2.91,0,0,0-2.39-1,3.78,3.78,0,0,0-2.05.59,6.7,6.7,0,0,0-1.73,1.62v12.64Z" transform="translate(-39.15 -11.36)"/><path class="cls-1" d="M473.38,397a15.89,15.89,0,0,0,1.78-.09,11.34,11.34,0,0,0,1.53-.28,10.41,10.41,0,0,0,1.36-.44q.64-.26,1.27-.59v-5.29h-3.72a.71.71,0,0,1-.51-.18.6.6,0,0,1-.19-.45v-1.84h7.37V397a13.22,13.22,0,0,1-1.88,1.14,12.78,12.78,0,0,1-2.09.81,15.07,15.07,0,0,1-2.39.49,22.27,22.27,0,0,1-2.76.16,12.46,12.46,0,0,1-4.79-.9,11,11,0,0,1-3.75-2.51,11.4,11.4,0,0,1-2.45-3.88,13.61,13.61,0,0,1-.88-5,13.94,13.94,0,0,1,.86-5,10.76,10.76,0,0,1,6.33-6.38,13.87,13.87,0,0,1,5.08-.89,15.68,15.68,0,0,1,2.65.21,12.43,12.43,0,0,1,2.27.6,10.65,10.65,0,0,1,1.93,1,11.88,11.88,0,0,1,1.66,1.26l-.92,1.47a.85.85,0,0,1-.74.45,1.18,1.18,0,0,1-.59-.18q-.42-.23-.94-.57a7.94,7.94,0,0,0-1.26-.64,10.16,10.16,0,0,0-1.76-.53,11.62,11.62,0,0,0-2.4-.22,9.72,9.72,0,0,0-3.67.66,7.75,7.75,0,0,0-2.8,1.89,8.37,8.37,0,0,0-1.78,3,11.71,11.71,0,0,0-.62,3.93,11.9,11.9,0,0,0,.64,4.06,8.56,8.56,0,0,0,1.82,3,7.83,7.83,0,0,0,2.78,1.89A9.35,9.35,0,0,0,473.38,397Z" transform="translate(-39.15 -11.36)"/><path class="cls-1" d="M493.51,382.09a7.57,7.57,0,0,1,2.81.51,6.32,6.32,0,0,1,2.23,1.47,6.7,6.7,0,0,1,1.47,2.38,9.19,9.19,0,0,1,.53,3.22,1.94,1.94,0,0,1-.15.94.63.63,0,0,1-.57.23H488.54a9.35,9.35,0,0,0,.44,2.8,5.7,5.7,0,0,0,1.11,2,4.42,4.42,0,0,0,1.67,1.19,5.75,5.75,0,0,0,2.18.39,6.39,6.39,0,0,0,1.93-.26,9.23,9.23,0,0,0,1.4-.56,10.83,10.83,0,0,0,1-.56,1.3,1.3,0,0,1,.68-.26.66.66,0,0,1,.57.28l.84,1.09a5.66,5.66,0,0,1-1.32,1.16,8.22,8.22,0,0,1-1.65.81,10.35,10.35,0,0,1-1.82.48,11.07,11.07,0,0,1-1.86.16,8.62,8.62,0,0,1-3.24-.59,7.1,7.1,0,0,1-2.56-1.74,8,8,0,0,1-1.68-2.84,11.55,11.55,0,0,1-.6-3.88,9.9,9.9,0,0,1,.54-3.32,7.8,7.8,0,0,1,1.57-2.67,7.2,7.2,0,0,1,2.5-1.78A8.19,8.19,0,0,1,493.51,382.09Zm.07,2.19a4.58,4.58,0,0,0-3.4,1.25,5.87,5.87,0,0,0-1.54,3.46h9.23a6.05,6.05,0,0,0-.28-1.9,4.24,4.24,0,0,0-.84-1.49,3.75,3.75,0,0,0-1.35-1A4.55,4.55,0,0,0,493.58,384.28Z" transform="translate(-39.15 -11.36)"/><path class="cls-1" d="M504.35,399.32v-17h1.77a.76.76,0,0,1,.8.62l.23,1.84a9.56,9.56,0,0,1,2.47-2,6.43,6.43,0,0,1,3.16-.75,6.13,6.13,0,0,1,2.45.46,4.76,4.76,0,0,1,1.78,1.31,5.77,5.77,0,0,1,1.08,2,8.88,8.88,0,0,1,.37,2.63v10.8h-3v-10.8a4.57,4.57,0,0,0-.88-3,3.29,3.29,0,0,0-2.69-1.06,5,5,0,0,0-2.47.64,8.15,8.15,0,0,0-2.12,1.73v12.49Z" transform="translate(-39.15 -11.36)"/><path class="cls-1" d="M529.68,382.09a7.57,7.57,0,0,1,2.81.51,6.32,6.32,0,0,1,2.23,1.47,6.7,6.7,0,0,1,1.47,2.38,9.19,9.19,0,0,1,.53,3.22,1.94,1.94,0,0,1-.15.94.63.63,0,0,1-.57.23H524.71a9.35,9.35,0,0,0,.44,2.8,5.7,5.7,0,0,0,1.11,2,4.42,4.42,0,0,0,1.67,1.19,5.75,5.75,0,0,0,2.18.39A6.39,6.39,0,0,0,532,397a9.23,9.23,0,0,0,1.4-.56,10.83,10.83,0,0,0,1-.56,1.3,1.3,0,0,1,.68-.26.66.66,0,0,1,.57.28l.84,1.09a5.66,5.66,0,0,1-1.32,1.16,8.22,8.22,0,0,1-1.65.81,10.35,10.35,0,0,1-1.82.48,11.07,11.07,0,0,1-1.86.16,8.62,8.62,0,0,1-3.24-.59,7.1,7.1,0,0,1-2.56-1.74,8,8,0,0,1-1.68-2.84,11.55,11.55,0,0,1-.6-3.88,9.9,9.9,0,0,1,.54-3.32,7.8,7.8,0,0,1,1.57-2.67,7.2,7.2,0,0,1,2.5-1.78A8.19,8.19,0,0,1,529.68,382.09Zm.07,2.19a4.58,4.58,0,0,0-3.4,1.25,5.87,5.87,0,0,0-1.54,3.46H534a6.05,6.05,0,0,0-.28-1.9,4.24,4.24,0,0,0-.84-1.49,3.75,3.75,0,0,0-1.35-1A4.55,4.55,0,0,0,529.75,384.28Z" transform="translate(-39.15 -11.36)"/><path class="cls-1" d="M540.52,399.32v-17h1.71a.94.94,0,0,1,.67.18,1.14,1.14,0,0,1,.25.64l.2,2.65a7.76,7.76,0,0,1,2.15-2.77,5.07,5.07,0,0,1,4.28-.84,4.48,4.48,0,0,1,1.06.44l-.39,2.23a.5.5,0,0,1-.52.42,2.6,2.6,0,0,1-.72-.16,4.56,4.56,0,0,0-1.36-.16,3.84,3.84,0,0,0-2.6.9,6.79,6.79,0,0,0-1.75,2.63v10.8Z" transform="translate(-39.15 -11.36)"/><path class="cls-1" d="M558,377a1.9,1.9,0,0,1-.18.81,2.36,2.36,0,0,1-.47.67,2.18,2.18,0,0,1-.68.46,2,2,0,0,1-.82.17A2,2,0,0,1,555,379a2.22,2.22,0,0,1-1.13-1.13,2,2,0,0,1-.17-.81,2.09,2.09,0,0,1,.17-.83,2.15,2.15,0,0,1,.46-.69,2.2,2.2,0,0,1,.67-.46,2,2,0,0,1,.81-.17,2,2,0,0,1,.82.17,2.18,2.18,0,0,1,.68.46,2.3,2.3,0,0,1,.47.69A2,2,0,0,1,558,377Zm-.67,5.33v17h-3v-17Z" transform="translate(-39.15 -11.36)"/><path class="cls-1" d="M574.16,385.37a1.31,1.31,0,0,1-.27.28.63.63,0,0,1-.38.1,1,1,0,0,1-.54-.21,8.09,8.09,0,0,0-.75-.46,6.31,6.31,0,0,0-1.1-.46,5.81,5.81,0,0,0-3.78.23,4.25,4.25,0,0,0-1.6,1.28,5.8,5.8,0,0,0-1,2,10.06,10.06,0,0,0-.33,2.66,9.73,9.73,0,0,0,.35,2.74,5.92,5.92,0,0,0,1,2,4.2,4.2,0,0,0,1.55,1.24,4.78,4.78,0,0,0,2.05.43,5.24,5.24,0,0,0,1.79-.26,5.4,5.4,0,0,0,1.17-.58,8.65,8.65,0,0,0,.77-.58.93.93,0,0,1,.6-.26.63.63,0,0,1,.57.28l.84,1.09a6.44,6.44,0,0,1-2.76,2,9.79,9.79,0,0,1-3.5.63,7.42,7.42,0,0,1-3-.59,6.73,6.73,0,0,1-2.37-1.7,8,8,0,0,1-1.58-2.74,11,11,0,0,1-.58-3.7,11.17,11.17,0,0,1,.53-3.5,7.93,7.93,0,0,1,1.54-2.77,7,7,0,0,1,2.5-1.82,8.44,8.44,0,0,1,3.42-.65,8.06,8.06,0,0,1,3.15.58,7.54,7.54,0,0,1,2.43,1.63Z" transform="translate(-39.15 -11.36)"/><path class="cls-1" d="M588.73,390.35v9H585.5v-24h7.08a13.3,13.3,0,0,1,4,.53,7.61,7.61,0,0,1,2.79,1.5A6,6,0,0,1,601,379.7a8.26,8.26,0,0,1,.54,3.06,7.81,7.81,0,0,1-.59,3.06,6.59,6.59,0,0,1-1.72,2.39,8,8,0,0,1-2.8,1.57,12.05,12.05,0,0,1-3.83.56Zm0-2.58h3.85a7.5,7.5,0,0,0,2.45-.37,5,5,0,0,0,1.78-1,4.28,4.28,0,0,0,1.09-1.58,5.4,5.4,0,0,0,.37-2,4.61,4.61,0,0,0-1.42-3.58,6.18,6.18,0,0,0-4.28-1.29h-3.85Z" transform="translate(-39.15 -11.36)"/><path class="cls-1" d="M605.16,399.32v-17h1.71a.94.94,0,0,1,.67.18,1.14,1.14,0,0,1,.25.64l.2,2.65a7.76,7.76,0,0,1,2.15-2.77,5.07,5.07,0,0,1,4.28-.84,4.48,4.48,0,0,1,1.06.44l-.39,2.23a.5.5,0,0,1-.52.42,2.6,2.6,0,0,1-.72-.16,4.56,4.56,0,0,0-1.36-.16,3.84,3.84,0,0,0-2.6.9,6.79,6.79,0,0,0-1.75,2.63v10.8Z" transform="translate(-39.15 -11.36)"/><path class="cls-1" d="M625.52,382.09a8.71,8.71,0,0,1,3.36.62,7.08,7.08,0,0,1,2.55,1.76,7.79,7.79,0,0,1,1.61,2.75,11.9,11.9,0,0,1,0,7.23,7.8,7.8,0,0,1-1.61,2.75,7,7,0,0,1-2.55,1.75,9.53,9.53,0,0,1-6.71,0,7.06,7.06,0,0,1-2.55-1.75,7.82,7.82,0,0,1-1.62-2.75,11.75,11.75,0,0,1,0-7.23,7.81,7.81,0,0,1,1.62-2.75,7.15,7.15,0,0,1,2.55-1.76A8.71,8.71,0,0,1,625.52,382.09Zm0,15.14a4.35,4.35,0,0,0,3.75-1.68,9.57,9.57,0,0,0,0-9.42,4.35,4.35,0,0,0-3.75-1.69,5.21,5.21,0,0,0-2.21.44,4.14,4.14,0,0,0-1.57,1.26,5.61,5.61,0,0,0-.94,2,11.93,11.93,0,0,0,0,5.4,5.51,5.51,0,0,0,.94,2,4.16,4.16,0,0,0,1.57,1.25A5.21,5.21,0,0,0,625.52,397.23Z" transform="translate(-39.15 -11.36)"/><path class="cls-1" d="M640.59,382.36v18.22a6.52,6.52,0,0,1-.27,1.9,4.08,4.08,0,0,1-.85,1.53,4,4,0,0,1-1.49,1,5.72,5.72,0,0,1-2.18.38,5.54,5.54,0,0,1-1-.08,5.46,5.46,0,0,1-.9-.25l.13-1.61a.34.34,0,0,1,.15-.28.87.87,0,0,1,.37-.06h.65a2.41,2.41,0,0,0,1.86-.61,2.88,2.88,0,0,0,.55-2V382.36Zm.67-5.32a1.9,1.9,0,0,1-.18.81,2.36,2.36,0,0,1-.47.67,2.18,2.18,0,0,1-.68.46,2,2,0,0,1-.82.17,2,2,0,0,1-.81-.17,2.22,2.22,0,0,1-1.13-1.13A2,2,0,0,1,637,377a2.09,2.09,0,0,1,.17-.83,2.15,2.15,0,0,1,.46-.69,2.2,2.2,0,0,1,.67-.46,2,2,0,0,1,.81-.17,2,2,0,0,1,.82.17,2.18,2.18,0,0,1,.68.46,2.3,2.3,0,0,1,.47.69A2,2,0,0,1,641.26,377Z" transform="translate(-39.15 -11.36)"/><path class="cls-1" d="M652.5,382.09a7.57,7.57,0,0,1,2.81.51,6.32,6.32,0,0,1,2.23,1.47,6.7,6.7,0,0,1,1.47,2.38,9.19,9.19,0,0,1,.53,3.22,1.94,1.94,0,0,1-.15.94.63.63,0,0,1-.57.23H647.52a9.35,9.35,0,0,0,.44,2.8,5.7,5.7,0,0,0,1.11,2,4.42,4.42,0,0,0,1.67,1.19,5.75,5.75,0,0,0,2.18.39,6.39,6.39,0,0,0,1.93-.26,9.23,9.23,0,0,0,1.4-.56,10.83,10.83,0,0,0,1-.56,1.3,1.3,0,0,1,.68-.26.66.66,0,0,1,.57.28l.84,1.09a5.66,5.66,0,0,1-1.32,1.16,8.22,8.22,0,0,1-1.65.81,10.35,10.35,0,0,1-1.82.48,11.07,11.07,0,0,1-1.86.16,8.62,8.62,0,0,1-3.24-.59,7.1,7.1,0,0,1-2.56-1.74,8,8,0,0,1-1.68-2.84,11.55,11.55,0,0,1-.6-3.88,9.9,9.9,0,0,1,.54-3.32,7.8,7.8,0,0,1,1.57-2.67,7.2,7.2,0,0,1,2.5-1.78A8.19,8.19,0,0,1,652.5,382.09Zm.07,2.19a4.58,4.58,0,0,0-3.4,1.25,5.87,5.87,0,0,0-1.54,3.46h9.23a6.05,6.05,0,0,0-.28-1.9,4.24,4.24,0,0,0-.84-1.49,3.75,3.75,0,0,0-1.35-1A4.55,4.55,0,0,0,652.56,384.28Z" transform="translate(-39.15 -11.36)"/><path class="cls-1" d="M674.9,385.37a1.31,1.31,0,0,1-.27.28.63.63,0,0,1-.38.1,1,1,0,0,1-.54-.21,8.09,8.09,0,0,0-.75-.46,6.31,6.31,0,0,0-1.1-.46,5.81,5.81,0,0,0-3.78.23,4.25,4.25,0,0,0-1.6,1.28,5.8,5.8,0,0,0-1,2,10.06,10.06,0,0,0-.33,2.66,9.73,9.73,0,0,0,.35,2.74,5.92,5.92,0,0,0,1,2,4.2,4.2,0,0,0,1.55,1.24,4.78,4.78,0,0,0,2.05.43,5.24,5.24,0,0,0,1.79-.26,5.4,5.4,0,0,0,1.17-.58,8.65,8.65,0,0,0,.77-.58.93.93,0,0,1,.6-.26.63.63,0,0,1,.57.28l.84,1.09a6.44,6.44,0,0,1-2.76,2,9.79,9.79,0,0,1-3.5.63,7.42,7.42,0,0,1-3-.59,6.73,6.73,0,0,1-2.37-1.7,8,8,0,0,1-1.58-2.74,11,11,0,0,1-.58-3.7,11.17,11.17,0,0,1,.53-3.5,7.93,7.93,0,0,1,1.54-2.77,7,7,0,0,1,2.5-1.82,8.44,8.44,0,0,1,3.42-.65,8.06,8.06,0,0,1,3.15.58,7.54,7.54,0,0,1,2.43,1.63Z" transform="translate(-39.15 -11.36)"/><path class="cls-1" d="M684.11,399.59a4.09,4.09,0,0,1-3.09-1.12,4.48,4.48,0,0,1-1.08-3.23V384.85h-2a.67.67,0,0,1-.45-.16.62.62,0,0,1-.18-.49V383l2.78-.35.69-5.24a.64.64,0,0,1,.22-.41.7.7,0,0,1,.47-.16h1.51v5.84h4.86v2.16h-4.86V395a2.17,2.17,0,0,0,.52,1.59,1.81,1.81,0,0,0,1.34.52,2.36,2.36,0,0,0,.81-.13,3.48,3.48,0,0,0,.59-.28l.43-.28a.56.56,0,0,1,.31-.12.51.51,0,0,1,.42.28l.87,1.42a5.56,5.56,0,0,1-1.86,1.13A6.31,6.31,0,0,1,684.11,399.59Z" transform="translate(-39.15 -11.36)"/><polygon class="cls-1" points="673.75 377.98 708.07 358.17 708.07 397.79 673.75 377.98"/></svg>