<svg id="Layer_1" data-name="Layer 1" xmlns="http://www.w3.org/2000/svg" viewBox="0 0 852.91 535.11"><defs><style>.cls-1{opacity:0.1;}.cls-2{fill:#fff;}</style></defs><title>faded</title><g class="cls-1"><path class="cls-2" d="M116.53,173.06l4.09,15.26L54.16,206.13l13,48.39,56.8-15.22L128,254.56l-56.8,15.22,15.94,59.5-18.83,5L31.24,195.91Z" transform="translate(-31.24 6.64)"/><path class="cls-2" d="M278.8,277.93l-14.49,3.88a6.45,6.45,0,0,1-4.39-.17,8,8,0,0,1-3.17-2.57l-21.9-30-62.11,16.64-4,36.89a7.82,7.82,0,0,1-1.49,3.71,6.39,6.39,0,0,1-3.69,2.44l-14.49,3.88,18.26-153.25,19-5.1ZM174.33,250.85,226,237l-36.82-50.49a108.82,108.82,0,0,1-7.65-11.93q0,4.25-.12,7.85t-.41,6.38Z" transform="translate(-31.24 6.64)"/><path class="cls-2" d="M382.13,219.61a4,4,0,0,1,3.14.5l9.49,6A61.32,61.32,0,0,1,378.24,247q-10.65,8.76-27.74,13.33A71.2,71.2,0,0,1,322,262.48a61.53,61.53,0,0,1-24.65-8.92A67.75,67.75,0,0,1,278,234.77a86.45,86.45,0,0,1-12.42-27.42,81.29,81.29,0,0,1-2.62-30,67.87,67.87,0,0,1,8.24-26.23,66,66,0,0,1,18.08-20.43,77.46,77.46,0,0,1,26.87-12.74q15.26-4.09,27.59-2.32a68.89,68.89,0,0,1,23.1,7.58l-3.78,10.23a6.83,6.83,0,0,1-1.12,2,4.41,4.41,0,0,1-2.34,1.3,5.05,5.05,0,0,1-2.9-.21q-1.65-.54-3.94-1.38t-5.32-1.68a41.45,41.45,0,0,0-7-1.24,53.06,53.06,0,0,0-8.92,0,59.93,59.93,0,0,0-11.16,2,54.58,54.58,0,0,0-19.31,9.26,47.14,47.14,0,0,0-13,15.12,51.17,51.17,0,0,0-5.78,20,67.87,67.87,0,0,0,2.36,23.7,69.13,69.13,0,0,0,9.9,22.09,52.73,52.73,0,0,0,14.74,14.43,44.22,44.22,0,0,0,18.07,6.6,50.31,50.31,0,0,0,19.92-1.4,79.52,79.52,0,0,0,10.91-3.7,47.11,47.11,0,0,0,8.52-4.72,39.87,39.87,0,0,0,6.77-6,63.09,63.09,0,0,0,5.78-7.6A5.08,5.08,0,0,1,382.13,219.61Z" transform="translate(-31.24 6.64)"/><path class="cls-2" d="M481.74,75.2,486,90.95l-44.72,12L474.11,225.6l-18.74,5L422.5,108l-44.92,12-4.22-15.74Z" transform="translate(-31.24 6.64)"/><path class="cls-2" d="M588.35,179a40,40,0,0,0,14.58-7,33.37,33.37,0,0,0,9.27-11.18A36.71,36.71,0,0,0,616,146.48a51,51,0,0,0-1.81-16.6L591.67,45.75l18.64-5,22.54,84.13A65.35,65.35,0,0,1,635,148.12a53.43,53.43,0,0,1-6.17,20.65,51.64,51.64,0,0,1-14.19,16.38,66.57,66.57,0,0,1-46,12.32,52.14,52.14,0,0,1-20.53-7.08,53,53,0,0,1-15.71-14.79,65.32,65.32,0,0,1-9.77-21.19L500.09,70.28l18.64-5,22.52,84A51,51,0,0,0,548,164.6a36.72,36.72,0,0,0,10.49,10.55,33.76,33.76,0,0,0,13.68,5.08A39.78,39.78,0,0,0,588.35,179Z" transform="translate(-31.24 6.64)"/><path class="cls-2" d="M788,141.49l-14.49,3.88a6.44,6.44,0,0,1-4.39-.17,8,8,0,0,1-3.17-2.57l-21.9-30L682,129.32l-4,36.89a7.82,7.82,0,0,1-1.49,3.71,6.39,6.39,0,0,1-3.7,2.44l-14.49,3.88L676.57,23l19-5.1ZM683.57,114.4l51.68-13.85L698.42,50.06a109.24,109.24,0,0,1-7.65-11.93q0,4.25-.12,7.85t-.41,6.37Z" transform="translate(-31.24 6.64)"/><path class="cls-2" d="M820,116l59.89-16,4.22,15.74L805.52,136.8,768.43-1.62l18.74-5Z" transform="translate(-31.24 6.64)"/><path class="cls-2" d="M247.51,387.1a10,10,0,0,1,3.44,1.82l108.13,82.84q-1-2.43-1.69-4.77t-1.33-4.56l-26.27-98,16.42-4.4L383.3,498.4l-9.47,2.54a8.32,8.32,0,0,1-3.92.22,9.71,9.71,0,0,1-3.65-1.82l-108-82.77q.84,2.36,1.56,4.65t1.24,4.22l26.42,98.62-16.42,4.4L234,390.06l9.66-2.59A8.72,8.72,0,0,1,247.51,387.1Z" transform="translate(-31.24 6.64)"/><path class="cls-2" d="M465.31,328.07l4.09,15.26-66.46,17.81,12.32,46,53.8-14.42L473,407.38l-53.8,14.42L431.85,469l66.46-17.81,4.09,15.26L417.1,489.34,380,350.93Z" transform="translate(-31.24 6.64)"/><path class="cls-2" d="M476.8,325l15.55-4.17a6.88,6.88,0,0,1,4.49.14,6.37,6.37,0,0,1,3.08,2.59l54.37,88.54q1.47,2.4,2.9,5.23t2.89,6q-.21-3.46-.34-6.69a52.11,52.11,0,0,1,.06-6l6.77-104.93a7.32,7.32,0,0,1,1.46-3.65,6.44,6.44,0,0,1,3.73-2.5l5.41-1.45a6.66,6.66,0,0,1,4.44.16,7.11,7.11,0,0,1,3.13,2.58l58.14,87.54A98.07,98.07,0,0,1,649,399q-.27-3.34-.57-6.37a42.78,42.78,0,0,1-.19-5.75L651.18,283a6.25,6.25,0,0,1,1.35-3.67,6.59,6.59,0,0,1,3.74-2.45L670.85,273l-6.09,150L648,427.49,584.61,331.3a60,60,0,0,1-3.79-6.44q0,2.06.08,4t-.05,3.48l-7,115-16.81,4.5Z" transform="translate(-31.24 6.64)"/><path class="cls-2" d="M765.81,270.74a7.76,7.76,0,0,1-1.25,2.66,4.22,4.22,0,0,1-2.32,1.4,6.92,6.92,0,0,1-4.26-.62A63.23,63.23,0,0,0,751.5,272a46.43,46.43,0,0,0-9-1.47,35.69,35.69,0,0,0-11.79,1.4,34.74,34.74,0,0,0-10.65,4.67,24.43,24.43,0,0,0-6.84,6.75,19.48,19.48,0,0,0-3.05,8.12,22.34,22.34,0,0,0,.62,8.89,16.15,16.15,0,0,0,5.42,8.85,25.35,25.35,0,0,0,9.28,4.5,59.62,59.62,0,0,0,11.88,1.84q6.47.39,13.27.84t13.45,1.52a44.34,44.34,0,0,1,12.43,3.87,31.68,31.68,0,0,1,10.2,7.93,34.28,34.28,0,0,1,6.73,13.72,48.39,48.39,0,0,1,1.48,17.88,40.72,40.72,0,0,1-5.32,16.28,43.74,43.74,0,0,1-12.1,13.18,55.56,55.56,0,0,1-18.75,8.65A62.12,62.12,0,0,1,733,401.13,59.41,59.41,0,0,1,710.57,393l3-10.34a7.31,7.31,0,0,1,1.4-2.29,4.56,4.56,0,0,1,2.27-1.38q2-.54,5.22.93a80,80,0,0,0,7.8,3A51.45,51.45,0,0,0,741,385.21a38.68,38.68,0,0,0,14.15-1.46,36.89,36.89,0,0,0,11.39-5,26.1,26.1,0,0,0,7.45-7.54,23.18,23.18,0,0,0,3.42-9.46,27.55,27.55,0,0,0-.84-10.85,18,18,0,0,0-5.61-9.52,24.48,24.48,0,0,0-9.28-4.71,54.18,54.18,0,0,0-11.81-1.75l-13.21-.6a126.68,126.68,0,0,1-13.4-1.33A40.94,40.94,0,0,1,710.92,329a32.16,32.16,0,0,1-10.27-8.38q-4.52-5.47-7-14.64a38.2,38.2,0,0,1,4-29.35,41.45,41.45,0,0,1,11.1-12.09,50.75,50.75,0,0,1,17.45-8.09,60.68,60.68,0,0,1,22.14-2A50.48,50.48,0,0,1,768,260.64Z" transform="translate(-31.24 6.64)"/></g></svg>