<svg id="Layer_1" data-name="Layer 1" xmlns="http://www.w3.org/2000/svg" viewBox="0 0 100 100"><defs><style>.cls-1{fill:#00c284;}</style></defs><title>logo-small-hover</title><path class="cls-1" d="M50,5A45,45,0,1,1,5,50,45.05,45.05,0,0,1,50,5m0-5a50,50,0,1,0,50,50A50,50,0,0,0,50,0Z"/><path class="cls-1" d="M33.17,23.17a3.6,3.6,0,0,1,1,1L64.07,63q-.11-.94-.14-1.82t0-1.71V22.94H70V74.52H66.48a3,3,0,0,1-1.39-.29,3.49,3.49,0,0,1-1.1-1L34.16,34.42q.07.9.11,1.76t0,1.58V74.52H28.18V22.94h3.6A3.14,3.14,0,0,1,33.17,23.17Z"/></svg>